<svg id="Layer_1" data-name="Layer 1" xmlns="http://www.w3.org/2000/svg" viewBox="0 0 25 25"><defs><style>.cls-1{fill:url(#linear-gradient)}.cls-2{fill:#3a60d6;stroke:#3a60d6;stroke-miterlimit:10;stroke-width:.25px}</style><linearGradient id="linear-gradient" x1="6.05" y1="12.5" x2="18.94" y2="12.5" gradientUnits="userSpaceOnUse"><stop offset="0" stop-color="#4793ff" stop-opacity=".5"/><stop offset=".19" stop-color="#4793ff" stop-opacity=".43"/><stop offset=".57" stop-color="#4793ff" stop-opacity=".24"/><stop offset="1" stop-color="#4793ff" stop-opacity="0"/></linearGradient></defs><title>Space</title><circle class="cls-1" cx="12.5" cy="12.5" r="6.45"/><path class="cls-2" d="M5.11 5.72a.75.75 0 0 0 .53-.18.78.78 0 0 0 .25-.54.75.75 0 0 0-.18-.53.71.71 0 0 0-.5-.25.73.73 0 0 0-.73.68.71.71 0 0 0 .17.53.72.72 0 0 0 .46.29zM2.9 7.68a.74.74 0 0 0-.73.68.74.74 0 0 0 .68.78.72.72 0 0 0 .78-.68.7.7 0 0 0-.17-.53.76.76 0 0 0-.56-.25zm-.13 4.81a.75.75 0 0 0-.18-.49.74.74 0 0 0-.5-.24H2a.71.71 0 0 0-.48.19.68.68 0 0 0-.25.5.74.74 0 0 0 .17.53.76.76 0 0 0 .51.25.74.74 0 0 0 .82-.74zm.12 3.27h-.05a.74.74 0 0 0-.48.18.75.75 0 0 0-.25.5.74.74 0 0 0 .68.78.64.64 0 0 0 .53-.22.68.68 0 0 0 .25-.5.73.73 0 0 0-.68-.74zm2.35 3.48a.74.74 0 0 0-.73.68.73.73 0 0 0 .18.53.73.73 0 0 0 1.23-.45.69.69 0 0 0-.18-.53.68.68 0 0 0-.5-.23zm3.43 2.22h-.05a.72.72 0 0 0-.48.18.75.75 0 0 0-.25.5.74.74 0 0 0 .68.78.69.69 0 0 0 .53-.18.68.68 0 0 0 .25-.5.74.74 0 0 0-.17-.53.76.76 0 0 0-.51-.25zm6.89-3.95a.74.74 0 1 0 .73-.74.73.73 0 0 0-.73.74zm3.01-2.4a.73.73 0 1 0-.73-.73.74.74 0 0 0 .73.73zm.05-3.8a.74.74 0 1 0-.73-.73.73.73 0 0 0 .73.73zm-2.33-4.7a.74.74 0 1 0 .73.73.73.73 0 0 0-.73-.73zm-7.7-3.19a.73.73 0 0 0 .74-.68.7.7 0 0 0-.18-.53.71.71 0 0 0-.46-.21.72.72 0 0 0-.48.18.74.74 0 0 0-.07 1 .74.74 0 0 0 .45.24zm-1.76 8.99a5.77 5.77 0 0 1 5.34-5.77v-1a6.77 6.77 0 0 0 0 13.51v-1a5.76 5.76 0 0 1-5.34-5.74z"/><path class="cls-2" d="M13 1.5v1a10 10 0 0 1 0 20v1a11 11 0 0 0 0-22z"/></svg>