<svg id="Layer_1" data-name="Layer 1" xmlns="http://www.w3.org/2000/svg" viewBox="0 0 25 25"><defs><style>.cls-1{fill:url(#linear-gradient)}.cls-2{fill:none;stroke:#3a60d6;stroke-miterlimit:10}</style><linearGradient id="linear-gradient" x1="12.64" y1="8.82" x2="12.64" y2="21.84" gradientUnits="userSpaceOnUse"><stop offset="0" stop-color="#4793ff" stop-opacity=".5"/><stop offset=".19" stop-color="#4793ff" stop-opacity=".43"/><stop offset=".57" stop-color="#4793ff" stop-opacity=".24"/><stop offset="1" stop-color="#4793ff" stop-opacity="0"/></linearGradient></defs><title>Alert</title><path class="cls-1" d="M21.34 21.32V7.05L20 6.78l-3.28 4.76a1.27 1.27 0 0 1-1.77.33l-1.82-1.27a1.28 1.28 0 0 0-1.72.25l-2.22 2.69s1.08 1.51.24 2.7-2.61.18-2.61.18l-2.65 3.22a1 1 0 0 0 .74 1.58z"/><path class="cls-2" d="M19.29 4.49H4.61a1.17 1.17 0 0 0-1.17 1.17v14.45a1.17 1.17 0 0 0 1.17 1.17H20a1.17 1.17 0 0 0 1.17-1.17V6.8"/><path class="cls-2" d="M9.19 13.8l2.51-2.88a1.58 1.58 0 0 1 2.11-.3l1.13.78a1.56 1.56 0 0 0 2.18-.4l3.18-4.61"/><circle class="cls-2" cx="20.94" cy="5.08" r="1.75"/><circle class="cls-2" cx="8.13" cy="15.07" r="1.75"/></svg>