<?xml version="1.0" encoding="utf-8"?>
<!-- Generator: Adobe Illustrator 21.0.0, SVG Export Plug-In . SVG Version: 6.00 Build 0)  -->
<svg version="1.1" id="图层_1" xmlns="http://www.w3.org/2000/svg" xmlns:xlink="http://www.w3.org/1999/xlink" x="0px" y="0px"
	 viewBox="0 0 41 41" style="enable-background:new 0 0 41 41;" xml:space="preserve">
<style type="text/css">
	.st0{opacity:0.3;fill:none;stroke:#0069FF;stroke-width:2;enable-background:new    ;}
	.st1{fill:url(#SVGID_1_);}
	.st2{opacity:0.3;fill:url(#SVGID_2_);enable-background:new    ;}
	.st3{fill:#FFFFFF;}
	.st4{fill:url(#SVGID_3_);}
	.st5{fill:none;stroke:#00A6FF;stroke-width:2;}
	.st6{fill:#FFFFFF;stroke:#0069FF;stroke-width:2.5;}
	.st7{fill:#5F64FF;}
</style>
<path class="st0" d="M28.4,3.8V14c0,0.5-0.4,1-1,1H13.2c-0.5,0-1-0.4-1-1V3.8c0-0.5,0.4-1,1-1h14.3C28,2.9,28.4,3.3,28.4,3.8z"/>
<linearGradient id="SVGID_1_" gradientUnits="userSpaceOnUse" x1="-8.2585" y1="49.6924" x2="-8.2585" y2="50.4847" gradientTransform="matrix(35.756 0 0 -34.244 315.5921 1740.8325)">
	<stop  offset="0" style="stop-color:#0069FF;stop-opacity:0.3"/>
	<stop  offset="1" style="stop-color:#0069FF;stop-opacity:0"/>
</linearGradient>
<path class="st1" d="M37.3,39.3h-34c-0.5,0-0.8-0.3-0.9-0.7c0,0,0,0,0,0v-26c0-0.4,0.4-0.7,0.9-0.7h34c0.5,0,0.8,0.3,0.8,0.7v26
	C38.2,39,37.8,39.3,37.3,39.3C37.3,39.3,37.3,39.3,37.3,39.3L37.3,39.3z"/>
<linearGradient id="SVGID_2_" gradientUnits="userSpaceOnUse" x1="-8.3205" y1="49.1791" x2="-7.6495" y2="50.2045" gradientTransform="matrix(16.2 0 0 -12.06 149.03 608.96)">
	<stop  offset="0" style="stop-color:#0069FF;stop-opacity:0.6"/>
	<stop  offset="1" style="stop-color:#0069FF;stop-opacity:0"/>
</linearGradient>
<path class="st2" d="M28.4,14.1V3.7c0-0.5-0.4-0.8-0.8-0.8H13.1c-0.5,0-0.8,0.4-0.8,0.8v10.4c0,0.5,0.4,0.8,0.8,0.8h14.5
	C28.1,15,28.4,14.6,28.4,14.1z"/>
<path class="st3" d="M32.6,9v15.3c0,0.8-0.6,1.4-1.4,1.4H9.5c-0.8,0-1.4-0.6-1.4-1.4V9c0-0.8,0.6-1.4,1.4-1.4h21.7
	C32,7.6,32.6,8.2,32.6,9z"/>
<linearGradient id="SVGID_3_" gradientUnits="userSpaceOnUse" x1="-8.5095" y1="49.422" x2="-7.8367" y2="50.4576" gradientTransform="matrix(24.48 0 0 -18.09 219.41 921.26)">
	<stop  offset="0" style="stop-color:#0069FF;stop-opacity:0.6"/>
	<stop  offset="1" style="stop-color:#0069FF;stop-opacity:0"/>
</linearGradient>
<path class="st4" d="M32.6,24.7v-16c0-0.6-0.5-1-1-1H9.1c-0.6,0-1,0.5-1,1v16c0,0.6,0.5,1,1,1h22.4C32.1,25.8,32.6,25.3,32.6,24.7z"
	/>
<path class="st5" d="M32.6,8.5v16.3c0,0.5-0.4,0.9-0.9,0.9H9c-0.5,0-0.9-0.4-0.9-0.9V9c0-0.8,0.6-1.4,1.4-1.4h22.2
	C32.2,7.6,32.6,8,32.6,8.5z"/>
<path class="st6" d="M3.5,35.3V15.4c0-1.5,1.2-2.7,2.7-2.7h28.3c1.5,0,2.7,1.2,2.7,2.7v19.9c0,1.5-1.2,2.7-2.7,2.7H6.2
	C4.7,38,3.5,36.8,3.5,35.3z"/>
<g>
	<path class="st7" d="M16.8,18.8c0.8,0,1.5,0,2,0.1c0.5,0.1,0.8,0.3,1.1,0.6c0.2,0.3,0.3,0.7,0.3,1.3c0,0.4,0,0.9-0.1,1.5L20,23.3
		c-0.2,1.1-0.8,1.7-1.9,2c0.6,0.1,1,0.3,1.3,0.6c0.2,0.3,0.3,0.6,0.3,1.1c0,0.1,0,0.2,0,0.3c0,0.1-0.1,0.6-0.2,1.3l-0.2,1
		c-0.2,1.1-0.6,1.8-1.2,2.2c-0.5,0.4-1.4,0.6-2.6,0.6h-3.8l-0.3-1.9h4c0.4,0,0.7,0,1-0.1c0.2-0.1,0.4-0.3,0.6-0.5
		c0.1-0.2,0.2-0.6,0.3-1l0.1-0.7c0.1-0.5,0.1-0.9,0.1-1.1s-0.1-0.4-0.2-0.6c-0.1-0.1-0.5-0.1-1.2-0.1h-2.2l-0.3-1.9h2.4
		c0.6,0,1.1-0.1,1.4-0.3c0.2-0.2,0.4-0.5,0.5-1l0.1-0.7c0-0.4,0.1-0.6,0.1-0.8c0-0.3-0.1-0.5-0.2-0.6c-0.2-0.1-0.6-0.1-1.4-0.1h-3.3
		l-0.3-1.9H16.8z"/>
	<path class="st7" d="M25.8,18.8h2.2l-2.4,13.5h-2.2l1.9-11.1c-0.6,0.4-1.6,1-3.3,1.9l-0.9-1.7L25.8,18.8z"/>
</g>
</svg>
